# xmcd
#
# Track frame offsets:
#	150
#	21833
#	48488
#	69802
#	87959
#	112074
#	141057
#	156198
#	182713
#
# Disc length: 2740 seconds
#
# Revision: 0
# Processed by: cddbd v1.5.2PL0 Copyright (c) Steve Scherf et al.
# Submitted via: EasyCDDAExtractor 10.0.2.1
#
DISCID=730ab209
DTITLE=Juanita Bynum - Christmas at Home With
DYEAR=2006
DGENRE=Gospel
TTITLE0=The First Noel
TTITLE1=Have Yourself a Merry Little Christmas
TTITLE2=Little Town of Bethlehem
TTITLE3=God Rest Ye Merry Gentlemen
TTITLE4=Oh Come O Ye Faithful
TTITLE5=Oh Holy Night
TTITLE6=I Stand In Awe Of You
TTITLE7=Mary Did You Know
TTITLE8=It's Christmas Time
EXTD=
EXTT0=
EXTT1=
EXTT2=
EXTT3=
EXTT4=
EXTT5=
EXTT6=
EXTT7=
EXTT8=
PLAYORDER=
